#!OML:ASF F:\VICON\USERDATA\INSTALL\rory3\rory3.ASF
:FULLY-SPECIFIED
:DEGREES
1141
root 8.30347 17.814 6.44684 -371.629 -61.6583 11.7212
lowerback 12.2057 -0.23786 -6.23127
upperback 1.14299 -1.19791 -0.0245276
thorax -5.52238 -0.461695 3.6941
lowerneck -17.5648 -3.77135 -9.73612
upperneck 31.5921 -5.01623 6.27058
head 14.1569 -2.67925 3.31114
rclavicle 6.4605e-016 -1.15295e-014
rhumerus -37.1675 -7.89275 -80.4869
rradius 35.583
rwrist 2.74493
rhand -15.6661 11.5254
rfingers 7.12502
rthumb 10.5223 -18.1912
lclavicle 6.4605e-016 -1.15295e-014
lhumerus -30.7094 -2.36973 85.1921
lradius 34.1234
lwrist -4.95078
lhand -18.9916 22.7961
lfingers 7.12502
lthumb 7.3133 52.6497
rfemur -28.4396 -5.16748 14.688
rtibia 63.9234
rfoot -7.56726 -1.22967
rtoes 9.71515
lfemur -0.900379 4.20838 -29.3503
ltibia 16.7937
lfoot -11.8963 -7.57357
ltoes -6.51298
1142
root 8.21261 17.8034 6.49608 -371.57 -61.5595 11.7566
lowerback 12.1903 -0.266777 -6.31751
upperback 1.12835 -1.24655 -0.0164505
thorax -5.52205 -0.483041 3.75912
lowerneck -17.4937 -3.83066 -9.83985
upperneck 31.482 -5.13833 6.46796
head 14.1153 -2.71695 3.38656
rclavicle -1.75924e-014 -2.10712e-014
rhumerus -37.1356 -7.93096 -80.4721
rradius 35.6175
rwrist 2.78165
rhand -15.6414 11.5454
rfingers 7.12502
rthumb 10.5461 -18.17
lclavicle -1.75924e-014 -2.10712e-014
lhumerus -30.6374 -2.93702 85.4558
lradius 34.3994
lwrist -4.57129
lhand -19.1976 23.1006
lfingers 7.12502
lthumb 7.11442 52.961
rfemur -28.9088 -5.11739 14.7033
rtibia 62.1505
rfoot -8.22127 -1.5742
rtoes 12.6575
lfemur -0.735222 4.3953 -29.3611
ltibia 16.965
lfoot -11.9998 -8.0127
ltoes -5.5312
1143
root 8.11903 17.7996 6.55224 -371.669 -61.496 11.9535
lowerback 12.16 -0.271312 -6.41468
upperback 1.09212 -1.26342 -0.0043809
thorax -5.53951 -0.487191 3.82932
lowerneck -17.4243 -3.88656 -10.0021
upperneck 31.4327 -5.19148 6.52623
head 14.0921 -2.75189 3.42849
rclavicle -8.05078e-015 -2.38542e-015
rhumerus -37.202 -7.8049 -80.4653
rradius 35.7363
rwrist 2.74575
rhand -15.432 11.2389
rfingers 7.12502
rthumb 10.7481 -18.4661
lclavicle -8.05078e-015 -2.38542e-015
lhumerus -30.638 -3.29643 85.7408
lradius 34.6294
lwrist -4.50602
lhand -19.6613 22.9846
lfingers 7.12502
lthumb 6.66678 52.8596
rfemur -29.2649 -5.09181 14.612
rtibia 60.198
rfoot -8.72016 -1.83777
rtoes 11.4502
lfemur -0.436762 4.47771 -29.4659
ltibia 16.9409
lfoot -12.1388 -8.1011
ltoes -4.60573
1144
root 8.02422 17.7992 6.60906 -371.471 -61.4207 11.8701
lowerback 12.0571 -0.279168 -6.35632
upperback 1.06983 -1.2578 0.0035722
thorax -5.50736 -0.485927 3.80178
lowerneck -17.452 -3.93037 -9.93731
upperneck 31.4683 -5.25453 6.45898
head 14.1167 -2.78021 3.37903
rclavicle -9.69075e-015 6.36111e-015
rhumerus -37.2362 -7.74828 -80.5233
rradius 35.855
rwrist 2.51946
rhand -14.9909 11.2056
rfingers 7.12502
rthumb 11.1735 -18.4769
lclavicle -9.69075e-015 6.36111e-015
lhumerus -30.6305 -3.72121 85.9614
lradius 34.9112
lwrist -4.35321
lhand -19.8096 22.6809
lfingers 7.12502
lthumb 6.52359 52.5604
rfemur -29.5595 -5.07049 14.6667
rtibia 58.0805
rfoot -9.04916 -2.19659
rtoes 10.4444
lfemur -0.089052 4.38446 -29.4438
ltibia 16.7689
lfoot -12.1766 -8.23611
ltoes -3.19131
1145
root 7.92904 17.8068 6.66216 -371.108 -61.3145 11.6528
lowerback 11.9013 -0.316386 -6.27066
upperback 1.07524 -1.28175 0.0300765
thorax -5.41308 -0.502465 3.78161
lowerneck -17.543 -3.93679 -9.80554
upperneck 31.5298 -5.29509 6.43622
head 14.1628 -2.78405 3.34051
rclavicle 5.76476e-015 3.97569e-016
rhumerus -37.2374 -7.17116 -80.7937
rradius 36.0621
rwrist 1.73704
rhand -14.9979 11.0749
rfingers 7.12502
rthumb 11.1668 -18.6079
lclavicle 5.76476e-015 3.97569e-016
lhumerus -30.5309 -4.10167 86.1615
lradius 35.2304
lwrist -4.23582
lhand -19.8109 22.3871
lfingers 7.12502
lthumb 6.52232 52.2667
rfemur -29.7845 -4.8774 14.7283
rtibia 55.8384
rfoot -9.3336 -2.35443
rtoes 11.6134
lfemur 0.25015 4.19861 -29.3536
ltibia 16.5231
lfoot -12.3744 -8.0774
ltoes -3.35446
1146
root 7.83241 17.8134 6.7181 -371.011 -61.2675 11.6789
lowerback 11.8309 -0.343226 -6.31447
upperback 1.0462 -1.31641 0.0608764
thorax -5.399 -0.517628 3.84315
lowerneck -17.5569 -3.94465 -9.81012
upperneck 31.5082 -5.2958 6.42034
head 14.1561 -2.78597 3.334
rclavicle 1.28216e-014 -7.15625e-015
rhumerus -37.3375 -6.34983 -81.0384
rradius 36.2694
rwrist 1.154
rhand -15.0898 10.9344
rfingers 7.12502
rthumb 11.0782 -18.7533
lclavicle 1.28216e-014 -7.15625e-015
lhumerus -30.5229 -4.31923 86.3891
lradius 35.5639
lwrist -4.14676
lhand -19.7986 22.5376
lfingers 7.12502
lthumb 6.53422 52.4168
rfemur -29.9228 -4.70593 14.6754
rtibia 53.4648
rfoot -9.4505 -2.55497
rtoes 11.9411
lfemur 0.635287 4.15872 -29.3638
ltibia 16.2832
lfoot -12.6449 -7.8768
ltoes -3.46155
